<svg viewBox="0 0 200 200" xmlns="http://www.w3.org/2000/svg">
  <path fill="#D16BA5" d="M39.2,-62.1C52.5,-60.3,66,-53.1,74.3,-41.8C82.7,-30.6,86,-15.3,81.3,-2.7C76.6,9.9,63.9,19.7,55.4,30.7C46.9,41.7,42.4,53.8,33.9,62.9C25.3,72,12.7,78.2,0.7,76.9C-11.2,75.6,-22.4,66.9,-32.9,58.9C-43.3,50.9,-53,43.5,-63.5,33.8C-74.1,24.1,-85.6,12.1,-84.7,0.5C-83.8,-11,-70.5,-22.1,-62,-35.2C-53.4,-48.4,-49.5,-63.6,-39.9,-67.5C-30.4,-71.4,-15.2,-63.9,-1.1,-62C13,-60.1,26,-63.8,39.2,-62.1Z" transform="translate(100 100)" />
</svg>
